<svg xmlns="http://www.w3.org/2000/svg" role="img" aria-label="SOGANG AIMBA 7th" viewBox="0 0 96 96">
  <circle cx="48" cy="48" r="44" fill="none" stroke="#1a1714" stroke-width="2.2"/>
  <circle cx="48" cy="48" r="37" fill="none" stroke="#6b5e54" stroke-width="1"/>
  <path d="M48 16 73 28v20c0 17.5-10.4 27.2-25 34-14.6-6.8-25-16.5-25-34V28l25-12Z" fill="none" stroke="#1a1714" stroke-width="2.4" stroke-linejoin="round"/>
  <path d="M32 38h32" stroke="#8B0029" stroke-width="2.4" stroke-linecap="round"/>
  <path d="M36 32h24l-12-7-12 7Z" fill="#8B0029"/>
  <rect x="34" y="41" width="4" height="24" rx="1.2" fill="#1a1714"/>
  <rect x="42" y="41" width="4" height="24" rx="1.2" fill="#1a1714"/>
  <rect x="50" y="41" width="4" height="24" rx="1.2" fill="#1a1714"/>
  <rect x="58" y="41" width="4" height="24" rx="1.2" fill="#1a1714"/>
  <path d="M30 69h36" stroke="#8B0029" stroke-width="2.4" stroke-linecap="round"/>
  <text x="48" y="87" text-anchor="middle" font-family="Inter, Noto Sans KR, system-ui, sans-serif" font-size="8" font-weight="800" fill="#1a1714">AIMBA 7</text>
</svg>
